<svg xmlns="http://www.w3.org/2000/svg" width="22.585" height="22.585" viewBox="0 0 22.585 22.585">
  <defs>
    <style>
      .cls-1 {
        fill: #6E727F;
      }
    </style>
  </defs>
  <path id="chevron-circle-left" class="cls-1" d="M19.293,8A11.293,11.293,0,1,1,8,19.293,11.291,11.291,0,0,1,19.293,8Zm5.186,10.519-6.17-6.17a1.088,1.088,0,0,0-1.544,0l-.774.774a1.088,1.088,0,0,0,0,1.544l4.626,4.626-4.626,4.626a1.088,1.088,0,0,0,0,1.544l.774.774a1.088,1.088,0,0,0,1.544,0l6.17-6.17A1.094,1.094,0,0,0,24.479,18.519Z" transform="translate(30.585 30.585) rotate(180)"/>
</svg>
