<svg xmlns="http://www.w3.org/2000/svg" xmlns:xlink="http://www.w3.org/1999/xlink" width="31" height="42.032" viewBox="0 0 31 42.032">
  <defs>
    <style>
      .cls-1 {
        fill: url(#linear-gradient);
      }

      .cls-2 {
        opacity: 0.48;
        fill: url(#radial-gradient);
      }
    </style>
    <linearGradient id="linear-gradient" x1="0.5" x2="0.5" y2="1" gradientUnits="objectBoundingBox">
      <stop offset="0" stop-color="#fb5a17"/>
      <stop offset="1" stop-color="#e22a4c"/>
    </linearGradient>
    <radialGradient id="radial-gradient" cx="0.5" cy="0.5" r="0.5" gradientUnits="objectBoundingBox">
      <stop offset="0" stop-color="#fb5a17"/>
      <stop offset="1" stop-color="#e22a4c" stop-opacity="0"/>
    </radialGradient>
  </defs>
  <g id="Grupo_24" data-name="Grupo 24" transform="translate(-671 -467.968)">
    <path id="Subtração_1" data-name="Subtração 1" class="cls-1" d="M-1423.136-823.362a1.61,1.61,0,0,1-.729-.175,1.587,1.587,0,0,1-.593-.524c-1.736-2.541-3.2-4.643-4.487-6.5-5.84-8.4-7.055-10.148-7.055-14.451a13.214,13.214,0,0,1,.261-2.618,13.015,13.015,0,0,1,.75-2.438,13.014,13.014,0,0,1,1.186-2.206,13.052,13.052,0,0,1,1.571-1.922,12.99,12.99,0,0,1,1.9-1.586,12.827,12.827,0,0,1,2.185-1.2,12.706,12.706,0,0,1,2.415-.757,12.839,12.839,0,0,1,2.593-.264,12.839,12.839,0,0,1,2.593.264,12.7,12.7,0,0,1,2.415.757,12.819,12.819,0,0,1,2.185,1.2,12.963,12.963,0,0,1,1.9,1.586,13.045,13.045,0,0,1,1.571,1.922,13.032,13.032,0,0,1,1.186,2.206,13.014,13.014,0,0,1,.749,2.438,13.2,13.2,0,0,1,.262,2.618c0,4.3-1.215,6.051-7.055,14.451l0,0c-1.289,1.854-2.749,3.955-4.485,6.495a1.591,1.591,0,0,1-.593.524A1.61,1.61,0,0,1-1423.136-823.362Zm.022-28a5.816,5.816,0,0,0-5.781,5.837,5.816,5.816,0,0,0,5.781,5.837,5.816,5.816,0,0,0,5.781-5.837A5.816,5.816,0,0,0-1423.114-851.364Z" transform="translate(2109.884 1325.968)"/>
    <ellipse id="Elipse_4" data-name="Elipse 4" class="cls-2" cx="15.5" cy="7" rx="15.5" ry="7" transform="translate(671 496)"/>
  </g>
</svg>
