<svg xmlns="http://www.w3.org/2000/svg" width="26" height="26" viewBox="0 0 26 26">
  <defs>
    <style>
      .cls-1 {
        fill: #fff;
      }
    </style>
  </defs>
  <path id="times-circle" class="cls-1" d="M21,8A13,13,0,1,0,34,21,13,13,0,0,0,21,8Zm6.374,16.412a.63.63,0,0,1,0,.891L25.3,27.374a.63.63,0,0,1-.891,0L21,23.935l-3.413,3.439a.63.63,0,0,1-.891,0L14.626,25.3a.63.63,0,0,1,0-.891L18.065,21l-3.439-3.413a.63.63,0,0,1,0-.891L16.7,14.621a.63.63,0,0,1,.891,0L21,18.065l3.412-3.439a.63.63,0,0,1,.891,0L27.379,16.7a.63.63,0,0,1,0,.891L23.935,21Z" transform="translate(-8 -8)"/>
</svg>
